<svg width="50" height="381" viewBox="0 0 50 381" fill="none" xmlns="http://www.w3.org/2000/svg">
<path d="M5.76824 7.5V1.56L4.05824 1.89V0.98L6.10824 0.56H6.87824V7.5H5.76824ZM9.42878 6.42C10.3488 5.69333 11.0455 5.10333 11.5188 4.65C11.9921 4.19 12.3188 3.80333 12.4988 3.49C12.6788 3.17 12.7688 2.84667 12.7688 2.52C12.7688 1.75333 12.3088 1.37 11.3888 1.37C10.9021 1.37 10.4021 1.44 9.88878 1.58V0.649999C10.3688 0.523333 10.9255 0.459999 11.5588 0.459999C12.2921 0.459999 12.8588 0.623333 13.2588 0.95C13.6588 1.27 13.8588 1.76667 13.8588 2.44C13.8588 2.85333 13.7788 3.23333 13.6188 3.58C13.4655 3.92667 13.1955 4.3 12.8088 4.7C12.4288 5.09333 11.8721 5.58333 11.1388 6.17L10.7188 6.5V6.58H14.0988V7.5H9.42878V6.42ZM15.1793 4.03C15.1793 3.11667 15.276 2.4 15.4693 1.88C15.6693 1.35333 15.9427 0.986666 16.2893 0.779999C16.6427 0.566666 17.076 0.459999 17.5893 0.459999C18.1093 0.459999 18.5427 0.563333 18.8893 0.77C19.2427 0.976666 19.516 1.34333 19.7093 1.87C19.9027 2.39 19.9993 3.11 19.9993 4.03C19.9993 4.95 19.9027 5.67333 19.7093 6.2C19.516 6.72 19.2427 7.08333 18.8893 7.29C18.5427 7.49667 18.1093 7.6 17.5893 7.6C17.076 7.6 16.6427 7.49667 16.2893 7.29C15.9427 7.08333 15.6693 6.72 15.4693 6.2C15.276 5.67333 15.1793 4.95 15.1793 4.03ZM18.8993 4.03C18.8993 3.34333 18.8527 2.81 18.7593 2.43C18.6727 2.05 18.536 1.78333 18.3493 1.63C18.1627 1.47667 17.9093 1.4 17.5893 1.4C17.276 1.4 17.026 1.47667 16.8393 1.63C16.6527 1.78333 16.5127 2.05 16.4193 2.43C16.3327 2.81 16.2893 3.34333 16.2893 4.03C16.2893 4.72333 16.3327 5.26 16.4193 5.64C16.5127 6.02 16.6527 6.28667 16.8393 6.44C17.026 6.59333 17.276 6.67 17.5893 6.67C17.9093 6.67 18.1627 6.59333 18.3493 6.44C18.536 6.28667 18.6727 6.02 18.7593 5.64C18.8527 5.26 18.8993 4.72333 18.8993 4.03Z" fill="white" fill-opacity="0.7"/>
<path d="M5.76824 69.6667V63.7267L4.05824 64.0567V63.1467L6.10824 62.7267H6.87824V69.6667H5.76824ZM9.36878 66.1967C9.36878 65.2833 9.46545 64.5667 9.65878 64.0467C9.85878 63.52 10.1321 63.1533 10.4788 62.9467C10.8321 62.7333 11.2655 62.6267 11.7788 62.6267C12.2988 62.6267 12.7321 62.73 13.0788 62.9367C13.4321 63.1433 13.7055 63.51 13.8988 64.0367C14.0921 64.5567 14.1888 65.2767 14.1888 66.1967C14.1888 67.1167 14.0921 67.84 13.8988 68.3667C13.7055 68.8867 13.4321 69.25 13.0788 69.4567C12.7321 69.6633 12.2988 69.7667 11.7788 69.7667C11.2655 69.7667 10.8321 69.6633 10.4788 69.4567C10.1321 69.25 9.85878 68.8867 9.65878 68.3667C9.46545 67.84 9.36878 67.1167 9.36878 66.1967ZM13.0888 66.1967C13.0888 65.51 13.0421 64.9767 12.9488 64.5967C12.8621 64.2167 12.7255 63.95 12.5388 63.7967C12.3521 63.6433 12.0988 63.5667 11.7788 63.5667C11.4655 63.5667 11.2155 63.6433 11.0288 63.7967C10.8421 63.95 10.7021 64.2167 10.6088 64.5967C10.5221 64.9767 10.4788 65.51 10.4788 66.1967C10.4788 66.89 10.5221 67.4267 10.6088 67.8067C10.7021 68.1867 10.8421 68.4533 11.0288 68.6067C11.2155 68.76 11.4655 68.8367 11.7788 68.8367C12.0988 68.8367 12.3521 68.76 12.5388 68.6067C12.7255 68.4533 12.8621 68.1867 12.9488 67.8067C13.0421 67.4267 13.0888 66.89 13.0888 66.1967ZM15.1793 66.1967C15.1793 65.2833 15.276 64.5667 15.4693 64.0467C15.6693 63.52 15.9427 63.1533 16.2893 62.9467C16.6427 62.7333 17.076 62.6267 17.5893 62.6267C18.1093 62.6267 18.5427 62.73 18.8893 62.9367C19.2427 63.1433 19.516 63.51 19.7093 64.0367C19.9027 64.5567 19.9993 65.2767 19.9993 66.1967C19.9993 67.1167 19.9027 67.84 19.7093 68.3667C19.516 68.8867 19.2427 69.25 18.8893 69.4567C18.5427 69.6633 18.1093 69.7667 17.5893 69.7667C17.076 69.7667 16.6427 69.6633 16.2893 69.4567C15.9427 69.25 15.6693 68.8867 15.4693 68.3667C15.276 67.84 15.1793 67.1167 15.1793 66.1967ZM18.8993 66.1967C18.8993 65.51 18.8527 64.9767 18.7593 64.5967C18.6727 64.2167 18.536 63.95 18.3493 63.7967C18.1627 63.6433 17.9093 63.5667 17.5893 63.5667C17.276 63.5667 17.026 63.6433 16.8393 63.7967C16.6527 63.95 16.5127 64.2167 16.4193 64.5967C16.3327 64.9767 16.2893 65.51 16.2893 66.1967C16.2893 66.89 16.3327 67.4267 16.4193 67.8067C16.5127 68.1867 16.6527 68.4533 16.8393 68.6067C17.026 68.76 17.276 68.8367 17.5893 68.8367C17.9093 68.8367 18.1627 68.76 18.3493 68.6067C18.536 68.4533 18.6727 68.1867 18.7593 67.8067C18.8527 67.4267 18.8993 66.89 18.8993 66.1967Z" fill="white" fill-opacity="0.7"/>
<path d="M9.34878 130.003C9.34878 129.143 9.74545 128.563 10.5388 128.263V128.223C10.2321 128.077 9.99212 127.88 9.81878 127.633C9.65212 127.387 9.56878 127.057 9.56878 126.643C9.56878 126.063 9.75212 125.61 10.1188 125.283C10.4921 124.95 11.0455 124.783 11.7788 124.783C12.5121 124.783 13.0621 124.95 13.4288 125.283C13.7955 125.61 13.9788 126.063 13.9788 126.643C13.9788 127.057 13.8955 127.39 13.7288 127.643C13.5688 127.89 13.3188 128.083 12.9788 128.223V128.263C13.3588 128.383 13.6588 128.58 13.8788 128.853C14.0988 129.12 14.2088 129.507 14.2088 130.013C14.2088 130.66 13.9988 131.143 13.5788 131.463C13.1655 131.783 12.5655 131.943 11.7788 131.943C10.9988 131.943 10.3988 131.783 9.97878 131.463C9.55878 131.137 9.34878 130.65 9.34878 130.003ZM12.9988 126.733C12.9988 126.387 12.8955 126.12 12.6888 125.933C12.4821 125.747 12.1788 125.653 11.7788 125.653C10.9588 125.653 10.5488 126.013 10.5488 126.733C10.5488 127.48 10.9588 127.853 11.7788 127.853C12.2055 127.853 12.5155 127.753 12.7088 127.553C12.9021 127.347 12.9988 127.073 12.9988 126.733ZM13.1888 129.933C13.1888 129.093 12.7188 128.673 11.7788 128.673C11.3055 128.673 10.9521 128.777 10.7188 128.983C10.4855 129.19 10.3688 129.507 10.3688 129.933C10.3688 130.293 10.4821 130.57 10.7088 130.763C10.9421 130.957 11.2988 131.053 11.7788 131.053C12.2521 131.053 12.6055 130.957 12.8388 130.763C13.0721 130.563 13.1888 130.287 13.1888 129.933ZM15.1793 128.363C15.1793 127.45 15.276 126.733 15.4693 126.213C15.6693 125.687 15.9427 125.32 16.2893 125.113C16.6427 124.9 17.076 124.793 17.5893 124.793C18.1093 124.793 18.5427 124.897 18.8893 125.103C19.2427 125.31 19.516 125.677 19.7093 126.203C19.9027 126.723 19.9993 127.443 19.9993 128.363C19.9993 129.283 19.9027 130.007 19.7093 130.533C19.516 131.053 19.2427 131.417 18.8893 131.623C18.5427 131.83 18.1093 131.933 17.5893 131.933C17.076 131.933 16.6427 131.83 16.2893 131.623C15.9427 131.417 15.6693 131.053 15.4693 130.533C15.276 130.007 15.1793 129.283 15.1793 128.363ZM18.8993 128.363C18.8993 127.677 18.8527 127.143 18.7593 126.763C18.6727 126.383 18.536 126.117 18.3493 125.963C18.1627 125.81 17.9093 125.733 17.5893 125.733C17.276 125.733 17.026 125.81 16.8393 125.963C16.6527 126.117 16.5127 126.383 16.4193 126.763C16.3327 127.143 16.2893 127.677 16.2893 128.363C16.2893 129.057 16.3327 129.593 16.4193 129.973C16.5127 130.353 16.6527 130.62 16.8393 130.773C17.026 130.927 17.276 131.003 17.5893 131.003C17.9093 131.003 18.1627 130.927 18.3493 130.773C18.536 130.62 18.6727 130.353 18.7593 129.973C18.8527 129.593 18.8993 129.057 18.8993 128.363Z" fill="white" fill-opacity="0.7"/>
<path d="M9.40878 191.32C9.40878 189.947 9.72212 188.877 10.3488 188.11C10.9755 187.343 11.9421 186.96 13.2488 186.96L13.2388 187.9C12.4321 187.9 11.7955 188.093 11.3288 188.48C10.8688 188.86 10.6088 189.37 10.5488 190.01H10.5788C10.7255 189.863 10.9288 189.743 11.1888 189.65C11.4488 189.55 11.7221 189.5 12.0088 189.5C12.6821 189.5 13.2021 189.69 13.5688 190.07C13.9355 190.443 14.1188 190.997 14.1188 191.73C14.1188 192.45 13.9221 193.027 13.5288 193.46C13.1421 193.887 12.5588 194.1 11.7788 194.1C10.1988 194.1 9.40878 193.173 9.40878 191.32ZM13.1088 191.73C13.1088 191.27 12.9955 190.92 12.7688 190.68C12.5488 190.44 12.2488 190.32 11.8688 190.32C11.3888 190.32 11.0321 190.437 10.7988 190.67C10.5721 190.897 10.4588 191.207 10.4588 191.6C10.4588 192.133 10.5688 192.537 10.7888 192.81C11.0088 193.077 11.3321 193.21 11.7588 193.21C12.1988 193.21 12.5321 193.087 12.7588 192.84C12.9921 192.587 13.1088 192.217 13.1088 191.73ZM15.1793 190.53C15.1793 189.617 15.276 188.9 15.4693 188.38C15.6693 187.853 15.9427 187.487 16.2893 187.28C16.6427 187.067 17.076 186.96 17.5893 186.96C18.1093 186.96 18.5427 187.063 18.8893 187.27C19.2427 187.477 19.516 187.843 19.7093 188.37C19.9027 188.89 19.9993 189.61 19.9993 190.53C19.9993 191.45 19.9027 192.173 19.7093 192.7C19.516 193.22 19.2427 193.583 18.8893 193.79C18.5427 193.997 18.1093 194.1 17.5893 194.1C17.076 194.1 16.6427 193.997 16.2893 193.79C15.9427 193.583 15.6693 193.22 15.4693 192.7C15.276 192.173 15.1793 191.45 15.1793 190.53ZM18.8993 190.53C18.8993 189.843 18.8527 189.31 18.7593 188.93C18.6727 188.55 18.536 188.283 18.3493 188.13C18.1627 187.977 17.9093 187.9 17.5893 187.9C17.276 187.9 17.026 187.977 16.8393 188.13C16.6527 188.283 16.5127 188.55 16.4193 188.93C16.3327 189.31 16.2893 189.843 16.2893 190.53C16.2893 191.223 16.3327 191.76 16.4193 192.14C16.5127 192.52 16.6527 192.787 16.8393 192.94C17.026 193.093 17.276 193.17 17.5893 193.17C17.9093 193.17 18.1627 193.093 18.3493 192.94C18.536 192.787 18.6727 192.52 18.7593 192.14C18.8527 191.76 18.8993 191.223 18.8993 190.53Z" fill="white" fill-opacity="0.7"/>
<path d="M14.2488 253.607V254.537H13.4488V256.167H12.4088V254.537H9.19878V253.407L12.1488 249.227H13.4488V253.607H14.2488ZM10.1288 253.607H12.4088V250.357H12.3488L10.1288 253.547V253.607ZM15.1793 252.697C15.1793 251.783 15.276 251.067 15.4693 250.547C15.6693 250.02 15.9427 249.653 16.2893 249.447C16.6427 249.233 17.076 249.127 17.5893 249.127C18.1093 249.127 18.5427 249.23 18.8893 249.437C19.2427 249.643 19.516 250.01 19.7093 250.537C19.9027 251.057 19.9993 251.777 19.9993 252.697C19.9993 253.617 19.9027 254.34 19.7093 254.867C19.516 255.387 19.2427 255.75 18.8893 255.957C18.5427 256.163 18.1093 256.267 17.5893 256.267C17.076 256.267 16.6427 256.163 16.2893 255.957C15.9427 255.75 15.6693 255.387 15.4693 254.867C15.276 254.34 15.1793 253.617 15.1793 252.697ZM18.8993 252.697C18.8993 252.01 18.8527 251.477 18.7593 251.097C18.6727 250.717 18.536 250.45 18.3493 250.297C18.1627 250.143 17.9093 250.067 17.5893 250.067C17.276 250.067 17.026 250.143 16.8393 250.297C16.6527 250.45 16.5127 250.717 16.4193 251.097C16.3327 251.477 16.2893 252.01 16.2893 252.697C16.2893 253.39 16.3327 253.927 16.4193 254.307C16.5127 254.687 16.6527 254.953 16.8393 255.107C17.026 255.26 17.276 255.337 17.5893 255.337C17.9093 255.337 18.1627 255.26 18.3493 255.107C18.536 254.953 18.6727 254.687 18.7593 254.307C18.8527 253.927 18.8993 253.39 18.8993 252.697Z" fill="white" fill-opacity="0.7"/>
<path d="M9.42878 317.253C10.3488 316.527 11.0455 315.937 11.5188 315.483C11.9921 315.023 12.3188 314.637 12.4988 314.323C12.6788 314.003 12.7688 313.68 12.7688 313.353C12.7688 312.587 12.3088 312.203 11.3888 312.203C10.9021 312.203 10.4021 312.273 9.88878 312.413V311.483C10.3688 311.357 10.9255 311.293 11.5588 311.293C12.2921 311.293 12.8588 311.457 13.2588 311.783C13.6588 312.103 13.8588 312.6 13.8588 313.273C13.8588 313.687 13.7788 314.067 13.6188 314.413C13.4655 314.76 13.1955 315.133 12.8088 315.533C12.4288 315.927 11.8721 316.417 11.1388 317.003L10.7188 317.333V317.413H14.0988V318.333H9.42878V317.253ZM15.1793 314.863C15.1793 313.95 15.276 313.233 15.4693 312.713C15.6693 312.187 15.9427 311.82 16.2893 311.613C16.6427 311.4 17.076 311.293 17.5893 311.293C18.1093 311.293 18.5427 311.397 18.8893 311.603C19.2427 311.81 19.516 312.177 19.7093 312.703C19.9027 313.223 19.9993 313.943 19.9993 314.863C19.9993 315.783 19.9027 316.507 19.7093 317.033C19.516 317.553 19.2427 317.917 18.8893 318.123C18.5427 318.33 18.1093 318.433 17.5893 318.433C17.076 318.433 16.6427 318.33 16.2893 318.123C15.9427 317.917 15.6693 317.553 15.4693 317.033C15.276 316.507 15.1793 315.783 15.1793 314.863ZM18.8993 314.863C18.8993 314.177 18.8527 313.643 18.7593 313.263C18.6727 312.883 18.536 312.617 18.3493 312.463C18.1627 312.31 17.9093 312.233 17.5893 312.233C17.276 312.233 17.026 312.31 16.8393 312.463C16.6527 312.617 16.5127 312.883 16.4193 313.263C16.3327 313.643 16.2893 314.177 16.2893 314.863C16.2893 315.557 16.3327 316.093 16.4193 316.473C16.5127 316.853 16.6527 317.12 16.8393 317.273C17.026 317.427 17.276 317.503 17.5893 317.503C17.9093 317.503 18.1627 317.427 18.3493 317.273C18.536 317.12 18.6727 316.853 18.7593 316.473C18.8527 316.093 18.8993 315.557 18.8993 314.863Z" fill="white" fill-opacity="0.7"/>
<path d="M15.1793 377.03C15.1793 376.117 15.276 375.4 15.4693 374.88C15.6693 374.353 15.9427 373.987 16.2893 373.78C16.6427 373.567 17.076 373.46 17.5893 373.46C18.1093 373.46 18.5427 373.563 18.8893 373.77C19.2427 373.977 19.516 374.343 19.7093 374.87C19.9027 375.39 19.9993 376.11 19.9993 377.03C19.9993 377.95 19.9027 378.673 19.7093 379.2C19.516 379.72 19.2427 380.083 18.8893 380.29C18.5427 380.497 18.1093 380.6 17.5893 380.6C17.076 380.6 16.6427 380.497 16.2893 380.29C15.9427 380.083 15.6693 379.72 15.4693 379.2C15.276 378.673 15.1793 377.95 15.1793 377.03ZM18.8993 377.03C18.8993 376.343 18.8527 375.81 18.7593 375.43C18.6727 375.05 18.536 374.783 18.3493 374.63C18.1627 374.477 17.9093 374.4 17.5893 374.4C17.276 374.4 17.026 374.477 16.8393 374.63C16.6527 374.783 16.5127 375.05 16.4193 375.43C16.3327 375.81 16.2893 376.343 16.2893 377.03C16.2893 377.723 16.3327 378.26 16.4193 378.64C16.5127 379.02 16.6527 379.287 16.8393 379.44C17.026 379.593 17.276 379.67 17.5893 379.67C17.9093 379.67 18.1627 379.593 18.3493 379.44C18.536 379.287 18.6727 379.02 18.7593 378.64C18.8527 378.26 18.8993 377.723 18.8993 377.03Z" fill="white" fill-opacity="0.7"/>
<line x1="22.4999" y1="4" x2="32.4999" y2="4" stroke="white" stroke-opacity="0.7"/>
<line x1="22.4999" y1="10.45" x2="27.4999" y2="10.45" stroke="white" stroke-opacity="0.7" stroke-width="0.5"/>
<line x1="22.4999" y1="16.65" x2="27.4999" y2="16.65" stroke="white" stroke-opacity="0.7" stroke-width="0.5"/>
<line x1="22.4999" y1="22.85" x2="27.4999" y2="22.85" stroke="white" stroke-opacity="0.7" stroke-width="0.5"/>
<line x1="22.4999" y1="29.05" x2="27.4999" y2="29.05" stroke="white" stroke-opacity="0.7" stroke-width="0.5"/>
<line x1="22.4999" y1="35" x2="32.4999" y2="35" stroke="white" stroke-opacity="0.7"/>
<line x1="22.4999" y1="35" x2="32.4999" y2="35" stroke="white" stroke-opacity="0.7"/>
<line x1="22.4999" y1="41.45" x2="27.4999" y2="41.45" stroke="white" stroke-opacity="0.7" stroke-width="0.5"/>
<line x1="22.4999" y1="47.65" x2="27.4999" y2="47.65" stroke="white" stroke-opacity="0.7" stroke-width="0.5"/>
<line x1="22.4999" y1="53.85" x2="27.4999" y2="53.85" stroke="white" stroke-opacity="0.7" stroke-width="0.5"/>
<line x1="22.4999" y1="60.05" x2="27.4999" y2="60.05" stroke="white" stroke-opacity="0.7" stroke-width="0.5"/>
<line x1="22.4999" y1="66" x2="32.4999" y2="66" stroke="white" stroke-opacity="0.7"/>
<line x1="22.4999" y1="66" x2="32.4999" y2="66" stroke="white" stroke-opacity="0.7"/>
<line x1="22.4999" y1="72.45" x2="27.4999" y2="72.45" stroke="white" stroke-opacity="0.7" stroke-width="0.5"/>
<line x1="22.4999" y1="78.65" x2="27.4999" y2="78.65" stroke="white" stroke-opacity="0.7" stroke-width="0.5"/>
<line x1="22.4999" y1="84.85" x2="27.4999" y2="84.85" stroke="white" stroke-opacity="0.7" stroke-width="0.5"/>
<line x1="22.4999" y1="91.05" x2="27.4999" y2="91.05" stroke="white" stroke-opacity="0.7" stroke-width="0.5"/>
<line x1="22.4999" y1="97" x2="32.4999" y2="97" stroke="white" stroke-opacity="0.7"/>
<line x1="22.4999" y1="97" x2="32.4999" y2="97" stroke="white" stroke-opacity="0.7"/>
<line x1="22.4999" y1="103.45" x2="27.4999" y2="103.45" stroke="white" stroke-opacity="0.7" stroke-width="0.5"/>
<line x1="22.4999" y1="109.65" x2="27.4999" y2="109.65" stroke="white" stroke-opacity="0.7" stroke-width="0.5"/>
<line x1="22.4999" y1="115.85" x2="27.4999" y2="115.85" stroke="white" stroke-opacity="0.7" stroke-width="0.5"/>
<line x1="22.4999" y1="122.05" x2="27.4999" y2="122.05" stroke="white" stroke-opacity="0.7" stroke-width="0.5"/>
<line x1="22.4999" y1="128" x2="32.4999" y2="128" stroke="white" stroke-opacity="0.7"/>
<line x1="22.4999" y1="128" x2="32.4999" y2="128" stroke="white" stroke-opacity="0.7"/>
<line x1="22.4999" y1="134.45" x2="27.4999" y2="134.45" stroke="white" stroke-opacity="0.7" stroke-width="0.5"/>
<line x1="22.4999" y1="140.65" x2="27.4999" y2="140.65" stroke="white" stroke-opacity="0.7" stroke-width="0.5"/>
<line x1="22.4999" y1="146.85" x2="27.4999" y2="146.85" stroke="white" stroke-opacity="0.7" stroke-width="0.5"/>
<line x1="22.4999" y1="153.05" x2="27.4999" y2="153.05" stroke="white" stroke-opacity="0.7" stroke-width="0.5"/>
<line x1="22.4999" y1="159" x2="32.4999" y2="159" stroke="white" stroke-opacity="0.7"/>
<line x1="22.4999" y1="159" x2="32.4999" y2="159" stroke="white" stroke-opacity="0.7"/>
<line x1="22.4999" y1="165.45" x2="27.4999" y2="165.45" stroke="white" stroke-opacity="0.7" stroke-width="0.5"/>
<line x1="22.4999" y1="171.65" x2="27.4999" y2="171.65" stroke="white" stroke-opacity="0.7" stroke-width="0.5"/>
<line x1="22.4999" y1="177.85" x2="27.4999" y2="177.85" stroke="white" stroke-opacity="0.7" stroke-width="0.5"/>
<line x1="22.4999" y1="184.05" x2="27.4999" y2="184.05" stroke="white" stroke-opacity="0.7" stroke-width="0.5"/>
<line x1="22.4999" y1="190" x2="32.4999" y2="190" stroke="white" stroke-opacity="0.7"/>
<line x1="22.5" y1="190" x2="32.5" y2="190" stroke="white" stroke-opacity="0.7"/>
<line x1="22.5" y1="196.45" x2="27.5" y2="196.45" stroke="white" stroke-opacity="0.7" stroke-width="0.5"/>
<line x1="22.5" y1="202.65" x2="27.5" y2="202.65" stroke="white" stroke-opacity="0.7" stroke-width="0.5"/>
<line x1="22.5" y1="208.85" x2="27.5" y2="208.85" stroke="white" stroke-opacity="0.7" stroke-width="0.5"/>
<line x1="22.5" y1="215.05" x2="27.5" y2="215.05" stroke="white" stroke-opacity="0.7" stroke-width="0.5"/>
<line x1="22.5" y1="221" x2="32.5" y2="221" stroke="white" stroke-opacity="0.7"/>
<line x1="22.5" y1="221" x2="32.5" y2="221" stroke="white" stroke-opacity="0.7"/>
<line x1="22.5" y1="227.45" x2="27.5" y2="227.45" stroke="white" stroke-opacity="0.7" stroke-width="0.5"/>
<line x1="22.5" y1="233.65" x2="27.5" y2="233.65" stroke="white" stroke-opacity="0.7" stroke-width="0.5"/>
<line x1="22.5" y1="239.85" x2="27.5" y2="239.85" stroke="white" stroke-opacity="0.7" stroke-width="0.5"/>
<line x1="22.5" y1="246.05" x2="27.5" y2="246.05" stroke="white" stroke-opacity="0.7" stroke-width="0.5"/>
<line x1="22.5" y1="252" x2="32.5" y2="252" stroke="white" stroke-opacity="0.7"/>
<line x1="22.5" y1="252" x2="32.5" y2="252" stroke="white" stroke-opacity="0.7"/>
<line x1="22.5" y1="258.45" x2="27.5" y2="258.45" stroke="white" stroke-opacity="0.7" stroke-width="0.5"/>
<line x1="22.5" y1="264.65" x2="27.5" y2="264.65" stroke="white" stroke-opacity="0.7" stroke-width="0.5"/>
<line x1="22.5" y1="270.85" x2="27.5" y2="270.85" stroke="white" stroke-opacity="0.7" stroke-width="0.5"/>
<line x1="22.5" y1="277.05" x2="27.5" y2="277.05" stroke="white" stroke-opacity="0.7" stroke-width="0.5"/>
<line x1="22.5" y1="283" x2="32.5" y2="283" stroke="white" stroke-opacity="0.7"/>
<line x1="22.5" y1="283" x2="32.5" y2="283" stroke="white" stroke-opacity="0.7"/>
<line x1="22.5" y1="289.45" x2="27.5" y2="289.45" stroke="white" stroke-opacity="0.7" stroke-width="0.5"/>
<line x1="22.5" y1="295.65" x2="27.5" y2="295.65" stroke="white" stroke-opacity="0.7" stroke-width="0.5"/>
<line x1="22.5" y1="301.85" x2="27.5" y2="301.85" stroke="white" stroke-opacity="0.7" stroke-width="0.5"/>
<line x1="22.5" y1="308.05" x2="27.5" y2="308.05" stroke="white" stroke-opacity="0.7" stroke-width="0.5"/>
<line x1="22.5" y1="314" x2="32.5" y2="314" stroke="white" stroke-opacity="0.7"/>
<line x1="22.5" y1="314" x2="32.5" y2="314" stroke="white" stroke-opacity="0.7"/>
<line x1="22.5" y1="320.45" x2="27.5" y2="320.45" stroke="white" stroke-opacity="0.7" stroke-width="0.5"/>
<line x1="22.5" y1="326.65" x2="27.5" y2="326.65" stroke="white" stroke-opacity="0.7" stroke-width="0.5"/>
<line x1="22.5" y1="332.85" x2="27.5" y2="332.85" stroke="white" stroke-opacity="0.7" stroke-width="0.5"/>
<line x1="22.5" y1="339.05" x2="27.5" y2="339.05" stroke="white" stroke-opacity="0.7" stroke-width="0.5"/>
<line x1="22.5" y1="345" x2="32.5" y2="345" stroke="white" stroke-opacity="0.7"/>
<line x1="22.5" y1="345" x2="32.5" y2="345" stroke="white" stroke-opacity="0.7"/>
<line x1="22.5" y1="351.45" x2="27.5" y2="351.45" stroke="white" stroke-opacity="0.7" stroke-width="0.5"/>
<line x1="22.5" y1="357.65" x2="27.5" y2="357.65" stroke="white" stroke-opacity="0.7" stroke-width="0.5"/>
<line x1="22.5" y1="363.85" x2="27.5" y2="363.85" stroke="white" stroke-opacity="0.7" stroke-width="0.5"/>
<line x1="22.5" y1="370.05" x2="27.5" y2="370.05" stroke="white" stroke-opacity="0.7" stroke-width="0.5"/>
<line x1="22.5" y1="376" x2="32.5" y2="376" stroke="white" stroke-opacity="0.7"/>
<rect x="37.4999" y="2.5" width="3" height="369" rx="1.5" fill="#141414"/>
<rect x="0.5" y="-0.5" width="4" height="230" rx="1.5" transform="matrix(1 0 0 -1 36.4999 375.5)" fill="#3598DB" stroke="#3598DB"/>
<rect x="28" y="138.912" width="21" height="11" rx="1.5" fill="#141414"/>
<rect x="28" y="138.912" width="21" height="11" rx="1.5" stroke="#3598DB"/>
<rect x="32.5" y="143.412" width="12" height="2" rx="1" fill="#3598DB"/>
</svg>
